<svg xmlns="http://www.w3.org/2000/svg" width="720" height="360" viewBox="0 0 720 360"><rect width="720" height="360" fill="#fffdf9"/><text x="360.0" y="34" font-family="'Hiragino Mincho ProN', serif" font-size="18" font-weight="600" fill="#2a2420" text-anchor="middle" dominant-baseline="central">オープニングムービーの定番の構成</text><rect x="60" y="76" width="180" height="64" rx="10" fill="#ffffff" stroke="#e6dccd" stroke-width="2"/><circle cx="86" cy="108.0" r="14" fill="#e7a03c"/><text x="86" y="108.0" font-family="'Hiragino Sans', sans-serif" font-size="15" font-weight="700" fill="#ffffff" text-anchor="middle" dominant-baseline="central">1</text><text x="172" y="108.0" font-family="'Hiragino Sans', sans-serif" font-size="16" font-weight="700" fill="#2a2420" text-anchor="middle" dominant-baseline="central">あいさつ</text><line x1="246" y1="108.0" x2="254" y2="108.0" stroke="#6e645a" stroke-width="2"/><path d="M252 101.0 L264 108.0 L252 115.0 Z" fill="#6e645a"/><rect x="270" y="76" width="180" height="64" rx="10" fill="#ffffff" stroke="#e6dccd" stroke-width="2"/><circle cx="296" cy="108.0" r="14" fill="#e7a03c"/><text x="296" y="108.0" font-family="'Hiragino Sans', sans-serif" font-size="15" font-weight="700" fill="#ffffff" text-anchor="middle" dominant-baseline="central">2</text><text x="382" y="108.0" font-family="'Hiragino Sans', sans-serif" font-size="15" font-weight="700" fill="#2a2420" text-anchor="middle" dominant-baseline="central">お名前と挙式日</text><line x1="456" y1="108.0" x2="464" y2="108.0" stroke="#6e645a" stroke-width="2"/><path d="M462 101.0 L474 108.0 L462 115.0 Z" fill="#6e645a"/><rect x="480" y="76" width="180" height="64" rx="10" fill="#ffffff" stroke="#e6dccd" stroke-width="2"/><circle cx="506" cy="108.0" r="14" fill="#e7a03c"/><text x="506" y="108.0" font-family="'Hiragino Sans', sans-serif" font-size="15" font-weight="700" fill="#ffffff" text-anchor="middle" dominant-baseline="central">3</text><text x="592" y="108.0" font-family="'Hiragino Sans', sans-serif" font-size="16" font-weight="700" fill="#2a2420" text-anchor="middle" dominant-baseline="central">新郎の紹介</text><rect x="60" y="188" width="180" height="64" rx="10" fill="#ffffff" stroke="#e6dccd" stroke-width="2"/><circle cx="86" cy="220.0" r="14" fill="#e7a03c"/><text x="86" y="220.0" font-family="'Hiragino Sans', sans-serif" font-size="15" font-weight="700" fill="#ffffff" text-anchor="middle" dominant-baseline="central">4</text><text x="172" y="220.0" font-family="'Hiragino Sans', sans-serif" font-size="16" font-weight="700" fill="#2a2420" text-anchor="middle" dominant-baseline="central">新婦の紹介</text><line x1="246" y1="220.0" x2="254" y2="220.0" stroke="#6e645a" stroke-width="2"/><path d="M252 213.0 L264 220.0 L252 227.0 Z" fill="#6e645a"/><rect x="270" y="188" width="180" height="64" rx="10" fill="#ffffff" stroke="#e6dccd" stroke-width="2"/><circle cx="296" cy="220.0" r="14" fill="#e7a03c"/><text x="296" y="220.0" font-family="'Hiragino Sans', sans-serif" font-size="15" font-weight="700" fill="#ffffff" text-anchor="middle" dominant-baseline="central">5</text><text x="382" y="220.0" font-family="'Hiragino Sans', sans-serif" font-size="15" font-weight="700" fill="#2a2420" text-anchor="middle" dominant-baseline="central">感謝のメッセージ</text><line x1="456" y1="220.0" x2="464" y2="220.0" stroke="#6e645a" stroke-width="2"/><path d="M462 213.0 L474 220.0 L462 227.0 Z" fill="#6e645a"/><rect x="480" y="188" width="180" height="64" rx="10" fill="#f7e2c0" stroke="#e7a03c" stroke-width="2"/><circle cx="506" cy="220.0" r="14" fill="#e7a03c"/><text x="506" y="220.0" font-family="'Hiragino Sans', sans-serif" font-size="15" font-weight="700" fill="#ffffff" text-anchor="middle" dominant-baseline="central">6</text><text x="592" y="220.0" font-family="'Hiragino Sans', sans-serif" font-size="16" font-weight="700" fill="#2a2420" text-anchor="middle" dominant-baseline="central">まもなく入場</text><path d="M570 146 L570 160 L150 160 L150 174" fill="none" stroke="#6e645a" stroke-width="2"/><path d="M143 172 L150 186 L157 172 Z" fill="#6e645a"/><rect x="60" y="280" width="600" height="48" rx="10" fill="#f5ede1" stroke="#f5ede1" stroke-width="2"/><text x="360" y="304" font-family="'Hiragino Sans', sans-serif" font-size="16" font-weight="700" fill="#2a2420" text-anchor="middle" dominant-baseline="central">全体で 1 分半から 3 分ほどに収める</text></svg>