<svg xmlns="http://www.w3.org/2000/svg" width="720" height="452" viewBox="0 0 720 452"><rect width="720" height="452" fill="#fffdf9"/><text x="170" y="40" font-family="'Hiragino Mincho ProN', serif" font-size="18" font-weight="600" fill="#2a2420" text-anchor="middle" dominant-baseline="central">紙の席次表</text><text x="530" y="40" font-family="'Hiragino Mincho ProN', serif" font-size="18" font-weight="600" fill="#2a2420" text-anchor="middle" dominant-baseline="central">envas のプロフィールブック</text><rect x="80" y="80" width="150" height="200" rx="4" fill="#ffffff" stroke="#e6dccd" stroke-width="2"/><rect x="94" y="94" width="150" height="200" rx="4" fill="#ffffff" stroke="#e6dccd" stroke-width="2"/><rect x="108" y="108" width="150" height="200" rx="4" fill="#ffffff" stroke="#e6dccd" stroke-width="2"/><text x="183" y="210" font-family="'Hiragino Sans', sans-serif" font-size="15" font-weight="600" fill="#2a2420" text-anchor="middle" dominant-baseline="central">ページが増える</text><rect x="50" y="320" width="240" height="72" rx="12" fill="#fbefdc" stroke="none" stroke-width="0"/><text x="170" y="344" font-family="'Hiragino Sans', sans-serif" font-size="14" font-weight="400" fill="#2a2420" text-anchor="middle" dominant-baseline="central">ページが増えるほど</text><text x="170" y="368" font-family="'Hiragino Sans', sans-serif" font-size="14" font-weight="600" fill="#2a2420" text-anchor="middle" dominant-baseline="central">費用も手間もかかる</text><line x1="360" y1="70" x2="360" y2="400" stroke="#e6dccd" stroke-width="2" stroke-dasharray="4 6"/><rect x="450" y="66" width="160" height="300" rx="22" fill="#ffffff" stroke="#2a2420" stroke-width="3"/><rect x="466" y="96" width="128" height="38" rx="6" fill="#f5ede1" stroke="none" stroke-width="0"/><text x="530" y="115" font-family="'Hiragino Sans', sans-serif" font-size="13" font-weight="600" fill="#2a2420" text-anchor="middle" dominant-baseline="central">プロフィール</text><rect x="466" y="146" width="128" height="38" rx="6" fill="#f7e2c0" stroke="none" stroke-width="0"/><text x="530" y="165" font-family="'Hiragino Sans', sans-serif" font-size="13" font-weight="600" fill="#2a2420" text-anchor="middle" dominant-baseline="central">メッセージ</text><rect x="466" y="196" width="128" height="38" rx="6" fill="#f5ede1" stroke="none" stroke-width="0"/><text x="530" y="215" font-family="'Hiragino Sans', sans-serif" font-size="13" font-weight="600" fill="#2a2420" text-anchor="middle" dominant-baseline="central">料理のメニュー</text><rect x="466" y="246" width="128" height="38" rx="6" fill="#f7e2c0" stroke="none" stroke-width="0"/><text x="530" y="265" font-family="'Hiragino Sans', sans-serif" font-size="13" font-weight="600" fill="#2a2420" text-anchor="middle" dominant-baseline="central">フォトギャラリー</text><rect x="466" y="296" width="128" height="38" rx="6" fill="#f5ede1" stroke="none" stroke-width="0"/><text x="530" y="315" font-family="'Hiragino Sans', sans-serif" font-size="13" font-weight="600" fill="#2a2420" text-anchor="middle" dominant-baseline="central">二次会の案内</text><rect x="420" y="384" width="220" height="44" rx="22" fill="#6b8f5e" stroke="none" stroke-width="0"/><text x="530" y="406" font-family="'Hiragino Sans', sans-serif" font-size="13" font-weight="600" fill="#ffffff" text-anchor="middle" dominant-baseline="central">テーマは 6 種類 和風の縦書きも</text></svg>