<svg xmlns="http://www.w3.org/2000/svg" width="720" height="338" viewBox="0 0 720 338"><rect width="720" height="338" fill="#fffdf9"/><text x="360.0" y="36" font-family="'Hiragino Mincho ProN', serif" font-size="18" font-weight="600" fill="#2a2420" text-anchor="middle" dominant-baseline="central">お願いするときの流れ</text><rect x="35.0" y="62" width="190" height="52" rx="10" fill="#ffffff" stroke="#e6dccd" stroke-width="2"/><text x="130.0" y="88" font-family="'Hiragino Sans', sans-serif" font-size="15" font-weight="600" fill="#2a2420" text-anchor="middle" dominant-baseline="central">デザインを選ぶ</text><line x1="231.0" y1="88" x2="251.0" y2="88" stroke="#6e645a" stroke-width="2"/><path d="M249.0 81 L261.0 88 L249.0 95 Z" fill="#6e645a"/><rect x="265.0" y="62" width="190" height="52" rx="10" fill="#ffffff" stroke="#e6dccd" stroke-width="2"/><text x="360.0" y="88" font-family="'Hiragino Sans', sans-serif" font-size="15" font-weight="600" fill="#2a2420" text-anchor="middle" dominant-baseline="central">名前や肩書きを入稿</text><line x1="461.0" y1="88" x2="481.0" y2="88" stroke="#6e645a" stroke-width="2"/><path d="M479.0 81 L491.0 88 L479.0 95 Z" fill="#6e645a"/><rect x="495.0" y="62" width="190" height="52" rx="10" fill="#ffffff" stroke="#e6dccd" stroke-width="2"/><text x="590.0" y="88" font-family="'Hiragino Sans', sans-serif" font-size="15" font-weight="600" fill="#2a2420" text-anchor="middle" dominant-baseline="central">印刷されて届く</text><rect x="190" y="128" width="340" height="32" rx="16" fill="#f7e2c0"/><text x="360" y="144" font-family="'Hiragino Sans', sans-serif" font-size="14" font-weight="600" fill="#2a2420" text-anchor="middle" dominant-baseline="central">入稿の締め切りは結婚式の数週間前が多い</text><rect x="32" y="186" width="316" height="138" rx="12" fill="#f5ede1" stroke="none" stroke-width="0"/><circle cx="62" cy="216" r="15" fill="#6b8f5e"/><text x="62" y="216" font-family="'Hiragino Sans', sans-serif" font-size="18" font-weight="700" fill="#ffffff" text-anchor="middle" dominant-baseline="central">○</text><text x="86" y="216" font-family="'Hiragino Mincho ProN', serif" font-size="16" font-weight="600" fill="#2a2420" text-anchor="start" dominant-baseline="central">良いところ</text><circle cx="62" cy="258" r="4" fill="#6b8f5e"/><text x="76" y="258" font-family="'Hiragino Sans', sans-serif" font-size="15" font-weight="400" fill="#2a2420" text-anchor="start" dominant-baseline="central">仕上がりの質が安定している</text><circle cx="62" cy="298" r="4" fill="#6b8f5e"/><text x="76" y="298" font-family="'Hiragino Sans', sans-serif" font-size="15" font-weight="400" fill="#2a2420" text-anchor="start" dominant-baseline="central">おふたりの手間が少ない</text><rect x="372" y="186" width="316" height="138" rx="12" fill="#fbefdc" stroke="none" stroke-width="0"/><circle cx="402" cy="216" r="15" fill="#e7a03c"/><text x="402" y="216" font-family="'Hiragino Sans', sans-serif" font-size="18" font-weight="700" fill="#ffffff" text-anchor="middle" dominant-baseline="central">!</text><text x="426" y="216" font-family="'Hiragino Mincho ProN', serif" font-size="16" font-weight="600" fill="#2a2420" text-anchor="start" dominant-baseline="central">気をつけたいところ</text><circle cx="402" cy="258" r="4" fill="#e7a03c"/><text x="416" y="258" font-family="'Hiragino Sans', sans-serif" font-size="15" font-weight="400" fill="#2a2420" text-anchor="start" dominant-baseline="central">1 部ごとに費用がかかる</text><circle cx="402" cy="298" r="4" fill="#e7a03c"/><text x="416" y="298" font-family="'Hiragino Sans', sans-serif" font-size="15" font-weight="400" fill="#2a2420" text-anchor="start" dominant-baseline="central">締め切り後の変更は難しい</text></svg>